<svg id="ed0FKOa9hjG1" xmlns="http://www.w3.org/2000/svg" xmlns:xlink="http://www.w3.org/1999/xlink" viewBox="0 0 1920 1080" shape-rendering="geometricPrecision" text-rendering="geometricPrecision" project-id="4d3954875b02467ca56a813bf3850fa4" export-id="815a4d67655a47adad7b77d6aa7c54a7" cached="false"><g transform="matrix(17.504218 0 0 17.504218-604.352119-1803.987188)"><path d="M492.82608,4400.123152l1447.410685.000003l177.747492,595.387734-1447.4963-.002213L492.82608,4400.123152Z" transform="matrix(.064456 0 0 0.06368 5.228435-164.021302)" fill="#2e2e2b" stroke-width="20"/><g transform="matrix(.886346 0 0 0.886346 55.797159-14.344947)"><g transform="translate(-13.926948-.160324)"><path d="M66.441782,86.705946l9.608586,32.62676l23.13677.112873-1.857818,9.57542-29.080117.038207L55.31809,86.209686l11.123692.49626Z" transform="matrix(.568051 0 0 0.568051 35.320676 107.836922)" fill="#e1e2d6" fill-rule="evenodd" stroke-width="0.5"/><path d="M84.69944,113.445577l2.184677,7.276258l14.642007-.13158l7.259738,8.597357-29.788607-.001207-4.730596-15.668746l10.432781-.072082Z" transform="matrix(-.568051 0 0-.568051 128.539306 230.19146)" fill="#e1e2d6" fill-rule="evenodd" stroke-width="0.5"/><path d="M81.502652,114.125665l2.157814,5.26352l19.140893.009156l1.763726,9.622657h-27.790449l-6.345158-15.075547l11.073174.180214Z" transform="matrix(-.568051 0 0-.568051 132.675726 238.434957)" fill="#e1e2d6" fill-rule="evenodd" stroke-width="0.5"/><path d="M79.921131,110.616003l3.632236,13.073009-3.854592,3.527088-5.297254.436771-2.538537-2.303296-2.941873-14.733572h11.00002Z" transform="matrix(.568051 0 0-.568051 45.209416 243.96296)" fill="#e1e2d6" fill-rule="evenodd" stroke-width="0.5"/></g><g transform="matrix(.951222 0 0 0.951222-13.142707 7.494749)"><path d="M62.059173,102.296984l7.502735.545136-.31024,3.047215-7.288003-.453023.095508-3.139328Z" transform="matrix(1.305825 0 0 1.714894-24.694261-10.775338)" fill="#e1e2d6" fill-rule="evenodd" stroke-width="0.5"/><path d="M99.332513,111.447125l6.439767-23.198099l3.921279.361176l9.288322,36.92411l10.10314-2.592571-12.926289-43.42365Q99.197147,78.22312,99.197147,78.22312t-10.50628,33.248996" transform="matrix(.568051 0 0 0.568051-.169492 111.772102)" fill="#e1e2d6" fill-rule="evenodd" stroke-width="0.5"/></g><path d="M64.29517,83.678196L74.672501,118.1766l16.202587.02523l3.132294,10.557216-27.024497.156416L53.318653,83.637421l10.976517.040775Z" transform="matrix(.568051 0 0 0.568051-10.87098 109.213961)" fill="#e1e2d6" fill-rule="evenodd" stroke-width="0.5"/></g><path d="M1848.966953,4446.906628l91.269812-46.783473l177.747492,595.387734-136.868163-66.316731-132.149141-482.28753Z" transform="matrix(.064456 0 0 0.06368 5.228435-164.021302)" fill="#2e2e2b" stroke-width="20"/><g transform="matrix(.571659 0 0 0.571659 7.992685 68.660633)"><g transform="matrix(2.476705 0 0 2.476705-43.220408-229.375917)"><path d="M30.860897,30.616124l-11.421182-.00003L31.585833,70.851721l11.413869-.000644-2.132109-7.045367-4.467324-.002629-7.885527-26.143274l4.470799.000003-2.124644-7.043686Z" transform="matrix(-.568051 0 0-.568051 120.198935 168.261499)" fill="#399f9a" fill-rule="evenodd" stroke-width="0.5"/><path d="M31.670733,36.586635l-11.412847-.000892L32.396213,76.816956l11.413611.000074-2.130122-7.045989-4.459636.007938-7.879999-26.148803l4.456344-.00255c0,0-2.125678-7.040991-2.125678-7.040991Z" transform="matrix(.568051 0 0 0.568051 29.091604 107.354313)" fill="#399f9a" fill-rule="evenodd" stroke-width="0.5"/></g><path d="M90.072478,86.993481l63.976454-.007467l12.583979,42.831176-21.424499.009042-6.31119-21.535468-42.560424.006211-6.26432-21.303494Z" transform="matrix(.525719 0 0 0.511309 31.457254 65.757495)" fill="#399f9a" fill-rule="evenodd" stroke-width="0.5"/></g></g></svg>
